<!--
Animated 3D Bible Logo SVG (Bottom View)
This SVG uses gradients, shadows, and perspective to create a realistic 3D Bible as seen from below, with animated page flipping.
-->
<svg id="animated-bible-logo" width="180" height="120" viewBox="0 0 180 120" fill="none" xmlns="http://www.w3.org/2000/svg">
  <defs>
    <!-- Gradients for 3D effect -->
    <linearGradient id="bibleCover" x1="0" y1="0" x2="0" y2="1">
      <stop offset="0%" stop-color="#2d3a4d"/>
      <stop offset="100%" stop-color="#1a2233"/>
    </linearGradient>
    <linearGradient id="bibleSpine" x1="0" y1="0" x2="1" y2="1">
      <stop offset="0%" stop-color="#3a6ea5"/>
      <stop offset="100%" stop-color="#27496d"/>
    </linearGradient>
    <linearGradient id="pageEdge" x1="0" y1="0" x2="1" y2="1">
      <stop offset="0%" stop-color="#fff"/>
      <stop offset="100%" stop-color="#b3e5fc"/>
    </linearGradient>
    <filter id="shadow" x="-20%" y="-20%" width="140%" height="140%">
      <feDropShadow dx="0" dy="8" stdDeviation="8" flood-color="#000" flood-opacity="0.25"/>
    </filter>
  </defs>
  <!-- Bible base (bottom view, perspective) -->
  <ellipse cx="90" cy="100" rx="75" ry="18" fill="#111827" filter="url(#shadow)" opacity="0.5"/>
  <path d="M30 30 Q90 10 150 30 L150 100 Q90 120 30 100 Z" fill="url(#bibleCover)" stroke="#222" stroke-width="2"/>
  <!-- Spine -->
  <rect x="85" y="30" width="10" height="70" rx="5" fill="url(#bibleSpine)" stroke="#1e3557" stroke-width="1.5"/>
  <!-- Animated flipping pages (bottom view, perspective) -->
  <g style="transform-origin: 90px 100px;">
    <path class="page3d page1" d="M40 40 Q90 20 140 40 L140 95 Q90 110 40 95 Z" fill="url(#pageEdge)" opacity="0.95"/>
    <path class="page3d page2" d="M50 45 Q90 25 130 45 L130 92 Q90 105 50 92 Z" fill="url(#pageEdge)" opacity="0.9"/>
    <path class="page3d page3" d="M60 50 Q90 30 120 50 L120 89 Q90 100 60 89 Z" fill="url(#pageEdge)" opacity="0.85"/>
  </g>
  <!-- Bible cross (gold, on cover) -->
  <g>
    <rect x="87" y="55" width="6" height="28" rx="2" fill="#ffd700"/>
    <rect x="80" y="66" width="20" height="6" rx="2" fill="#ffd700"/>
  </g>
  <style>
    .page3d {
      transform-origin: 90px 100px;
      animation: flip3dbottom 2.5s infinite linear;
    }
    .page2 { animation-delay: 0.7s; }
    .page3 { animation-delay: 1.4s; }
    @keyframes flip3dbottom {
      0% { transform: perspective(400px) rotateX(0deg); opacity: 1; }
      20% { transform: perspective(400px) rotateX(-40deg); opacity: 0.8; }
      40% { transform: perspective(400px) rotateX(-80deg); opacity: 0.5; }
      60% { transform: perspective(400px) rotateX(-120deg); opacity: 0; }
      100% { transform: perspective(400px) rotateX(-120deg); opacity: 0; }
    }
  </style>
</svg>
